<?xml version="1.0" encoding="utf-8"?>
<svg viewBox="0 0 250 228" xmlns="http://www.w3.org/2000/svg">
  <g transform="matrix(1, 0, 0, 1, 32.276, 31.475)" style="">
    <g transform="matrix(1, 0, 0, 1, -6.04593, -19.691505)">
      <path d="M 88.431 168.402 C 89.784 168.171 89.928 144.899 89.229 145.194 L 52.077 144 C 30.523 144 17.052 120.666 27.829 102 C 32.831 93.336 42.074 88 52.077 88 L 148.078 88 C 181.948 88 203.118 51.333 186.182 22 C 178.323 8.386 163.797 0 148.078 0 L 52.077 0 C 42.84 0 37.066 10 41.685 18 C 43.829 21.713 47.79 24 52.077 24 L 148.078 24 C 163.473 24 173.096 40.667 165.398 54 C 161.825 60.188 155.223 64 148.078 64 L 52.077 64 C 12.048 64 -12.971 107.333 7.044 142 C 16.333 158.089 33.5 168 52.077 168 L 88.431 168.402 Z" style=""/>
      <path d="M 120.313 153.372 H 129.591 L 129.591 97.45 L 171.715 153.872 L 129.591 210.293 L 129.591 154.372 H 120.313 V 153.372 Z" style="stroke: rgb(0, 0, 0);" transform="matrix(1, 0.000025, -0.000025, 1, -65.935751, 2.069628)"/>
      <path d="M 146.475 200.671 C 119.988 162.273 115.072 158.333 115.072 144.221 C 115.072 124.891 130.742 109.221 150.072 109.221 C 169.402 109.221 185.072 124.891 185.072 144.221 C 185.072 158.333 180.156 162.273 153.669 200.671 C 151.93 203.182 148.213 203.182 146.475 200.671 Z M 150.072 158.804 C 158.126 158.804 164.655 152.275 164.655 144.221 C 164.655 136.167 158.126 129.638 150.072 129.638 C 142.018 129.638 135.489 136.167 135.489 144.221 C 135.489 152.275 142.018 158.804 150.072 158.804 Z"/>
    </g>
  </g>
</svg>
