<?xml version="1.0" encoding="utf-8"?>
<!-- Generator: Adobe Illustrator 28.3.0, SVG Export Plug-In . SVG Version: 6.00 Build 0)  -->
<svg version="1.1" id="Layer_1" xmlns="http://www.w3.org/2000/svg" x="0px"
     y="0px"
     viewBox="0 0 100 100" style="enable-background:new 0 0 100 100;" xml:space="preserve">
<path d="M93.2,79.3C87,86,79.5,91,70.9,94.3c-6.5,2.5-13.3,3.6-21.5,3.7h0c-15.5-0.3-29.5-6.5-40.7-17.8c-0.4-0.4-0.8-0.8-1.2-1.3
	c-1.3-1.6-1.2-3.7,0.2-5.1c0.7-0.7,1.6-1.1,2.5-1.1c0.9,0,1.8,0.3,2.6,1c0.3,0.2,0.6,0.5,0.8,0.8c0.1,0.1,0.2,0.2,0.3,0.3
	C23.5,85,36.5,90.5,50.5,90.5h0c13.9,0,26.9-5.5,36.6-15.6l0.3-0.3c0.2-0.2,0.3-0.4,0.5-0.5c0.9-0.9,1.9-1.3,2.9-1.3
	c0.9,0,1.8,0.4,2.5,1.1C94.8,75.3,94.7,77.5,93.2,79.3z"/>
    <path d="M74.8,66.8c-6.8,6.1-15,9.2-24.3,9.4h0c-9.7-0.2-18.1-3.6-25-10c-0.6-0.5-2.3-2.2-1.3-4.4c0.4-0.9,1.6-2.3,2.8-2.3h0.1
	c1.2,0,2.6,0.6,3.6,1.5c4.8,4.2,9.9,6.7,15.8,7.5c1.4,0.2,2.9,0.3,4.3,0.3c7,0,13.5-2.5,19.1-7.4c1.5-1.3,2.7-1.9,3.8-1.9
	c1,0,1.8,0.4,2.5,1.3C77.3,61.9,77.9,64,74.8,66.8z"/>
    <path d="M68.4,56.5c-0.1,1.1-0.8,2.2-2,3.2c-4.5,3.6-9.9,5.5-15.8,5.6h0c-6-0.1-11.4-2-16-5.7C32.4,58,32,55.8,33.3,54
	c0.7-0.9,1.7-1.4,2.8-1.4c1,0,2,0.4,3,1.1c3.5,2.7,7.4,4.1,11.4,4.1c4,0,7.9-1.4,11.3-4c1-0.8,2.1-1.2,3.1-1.2c1,0,2,0.4,2.7,1.3
	C68.2,54.7,68.5,55.6,68.4,56.5z"/>
    <path d="M59.2,50.7c-0.4,0.9-1.1,1.6-2.1,2c-1.4,0.6-2.9,1-4.4,1.4c-0.6,0.2-1.3,0.4-1.9,0.6l-0.3,0.1l-0.3-0.1
	c-0.6-0.2-1.3-0.4-1.9-0.5c-1.5-0.4-2.9-0.8-4.3-1.4c-1.1-0.4-1.9-1.2-2.3-2.1c-0.4-0.9-0.3-1.9,0.1-2.9c0.6-1.4,1.9-2.2,3.3-2.2
	c0.6,0,1.3,0.2,1.9,0.5c1.2,0.6,2.3,0.8,3.4,0.8c1.2,0,2.3-0.3,3.5-0.9c0.6-0.3,1.2-0.4,1.8-0.4c1.5,0,2.7,0.8,3.3,2.2
	C59.5,48.8,59.6,49.8,59.2,50.7z"/>
    <path d="M83.6,73.5c-9.1,8.8-20.3,13.4-33.3,13.7h0C37.1,86.8,25.8,82,16.7,72.8c-1.6-1.6-1.9-3.2-0.9-4.9c0.7-1.2,1.7-1.8,3-1.8
	c0.4,0,0.9,0.1,1.3,0.2c0.9,0.3,1.6,1,2.1,1.5c7.9,7.8,17.4,11.8,28.3,11.8c0.4,0,0.7,0,1.1,0c10.3-0.2,19.3-4.1,26.8-11.4
	c1.4-1.4,2.7-2.1,3.9-2.1c0.9,0,1.8,0.4,2.4,1.1C85.7,68.3,86.8,70.4,83.6,73.5z"/>
    <path d="M65,28.6c0,2.1-1.5,3.7-3.5,3.8c-0.1,0-0.1,0-0.2,0c-2.1,0-3.6-1.6-3.7-3.6c0-2,1.6-3.9,3.6-4c1,0,1.9,0.4,2.6,1.1
	S65,27.6,65,28.6z"/>
    <path d="M54.1,28.8c-0.1,2-1.6,3.5-3.7,3.5h0c-2,0-3.6-1.6-3.6-3.6c0-2,1.6-3.9,3.6-4c1,0,1.9,0.4,2.6,1.1
	C53.8,26.7,54.2,27.8,54.1,28.8z"/>
    <path d="M43.2,28.6c0,2-1.5,3.7-3.5,3.8l-0.2,0c-2.1,0-3.6-1.6-3.7-3.6c0-2.1,1.6-3.9,3.6-3.9c1,0,1.9,0.4,2.6,1.1
	C42.8,26.6,43.2,27.6,43.2,28.6z"/>
    <path d="M86.8,23.1c-0.1-5.5-4-9.2-9.5-9.2c-3,0-6,0-9,0l-14.1,0v-3.4h4.2c0,0,10.4,0,13.1,0c2.7,0,4.4-1.4,4.4-3.7
	c0-1-0.3-1.9-1-2.6C74.2,3.4,73,3,71.6,3c-7,0-14.1,0-21.1,0S36.4,3,29.3,3c-1.4,0-2.6,0.4-3.3,1.2c-0.7,0.7-1,1.5-1,2.5
	c0,2.2,1.7,3.7,4.4,3.7h17.3v3.4l-14.2,0c-3,0-5.9,0-8.9,0c-5.6,0-9.4,3.8-9.5,9.3c-0.1,4.2-0.1,7.8,0,11.1c0.2,5.4,4,9.1,9.4,9.1
	c8.9,0,17.9,0,26.8,0c9,0,18.1,0,27.1,0c5.4,0,9.3-3.8,9.4-9.1C86.9,30.8,86.9,27,86.8,23.1z M79.4,33.5c0,2-0.5,2.5-2.5,2.5
	c-3.9,0-26.5,0-26.5,0H24.1c-2.1,0-2.6-0.5-2.6-2.6c0-3.5,0-6.6,0-9.6c0-2,0.5-2.5,2.5-2.5l26,0c9,0,18,0,27,0
	c1.9,0,2.4,0.5,2.4,2.4C79.5,26.8,79.5,30,79.4,33.5z"/>
</svg>
