<?xml version="1.0" encoding="utf-8"?>
<svg viewBox="0 0 250 229" xmlns="http://www.w3.org/2000/svg">
  <g transform="matrix(0.868992, 0, 0, 0.868992, 43.639594, 64.534336)" style="">
    <g transform="matrix(1, 0, 0, 1, -6.04593, -19.691505)">
      <path d="M 87.489 168.402 C 88.844 168.171 89.249 144.899 88.547 145.194 L 51.408 144 C 34.186 143.996 22.154 134.239 26.78 115.016 C 29.132 105.242 41.181 101.016 51.184 101.016 L 147.158 101.016 C 185.222 100.998 204.479 67.962 186.878 22 C 181.283 7.39 164.739 0 149.02 0 L 64.131 -0.061 C 64.129 -0.138 64.799 24.441 64.764 24.326 L 148.752 24 C 164.147 24 178.401 48.46 164.886 67.016 C 160.659 72.82 154.599 77.016 147.454 77.016 L 51.453 77.016 C 11.424 77.016 -4.928 103.806 6.397 142 C 12.18 161.504 32.562 168 51.139 168 L 87.489 168.402 Z" style="fill: rgb(255, 255, 255); stroke-width: 0px;"/>
      <path d="M 120.313 153.372 H 129.591 L 129.591 97.45 L 171.715 153.872 L 129.591 210.293 L 129.591 154.372 H 120.313 V 153.372 Z" style="stroke: rgb(0, 0, 0); fill: rgb(255, 255, 255); stroke-width: 0px;" transform="matrix(-1, -0.000025, 0.000025, -1, 196.689421, 166.323458)"/>
      <path d="M 146.475 200.671 C 119.988 162.273 115.072 158.333 115.072 144.221 C 115.072 124.891 130.742 109.221 150.072 109.221 C 169.402 109.221 185.072 124.891 185.072 144.221 C 185.072 158.333 180.156 162.273 153.669 200.671 C 151.93 203.182 148.213 203.182 146.475 200.671 Z M 150.072 158.804 C 158.126 158.804 164.655 152.275 164.655 144.221 C 164.655 136.167 158.126 129.638 150.072 129.638 C 142.018 129.638 135.489 136.167 135.489 144.221 C 135.489 152.275 142.018 158.804 150.072 158.804 Z" style="fill: rgb(255, 255, 255); stroke-width: 0px;"/>
    </g>
  </g>
</svg>
